<svg width="1084" height="1322" viewBox="0 0 1084 1322" fill="none" xmlns="http://www.w3.org/2000/svg">
<path d="M5.52629 730.579C-32.7421 730.579 -64.0526 761.89 -64.0526 800.158C-64.0526 838.426 -32.7421 869.737 5.52629 869.737C43.7947 869.737 75.1052 838.426 75.1052 800.158C75.1052 761.89 43.7947 730.579 5.52629 730.579ZM5.52629 1008.89C-32.7421 1008.89 -64.0526 1040.21 -64.0526 1078.47C-64.0526 1116.74 -32.7421 1148.05 5.52629 1148.05C43.7947 1148.05 75.1052 1116.74 75.1052 1078.47C75.1052 1040.21 43.7947 1008.89 5.52629 1008.89ZM5.52629 452.263C-32.7421 452.263 -64.0526 483.574 -64.0526 521.842C-64.0526 560.111 -32.7421 591.421 5.52629 591.421C43.7947 591.421 75.1052 560.111 75.1052 521.842C75.1052 483.574 43.7947 452.263 5.52629 452.263ZM-203.211 487.053C-222.693 487.053 -238 502.36 -238 521.842C-238 541.324 -222.693 556.632 -203.211 556.632C-183.728 556.632 -168.421 541.324 -168.421 521.842C-168.421 502.36 -183.728 487.053 -203.211 487.053ZM5.52629 173.947C-32.7421 173.947 -64.0526 205.258 -64.0526 243.526C-64.0526 281.795 -32.7421 313.105 5.52629 313.105C43.7947 313.105 75.1052 281.795 75.1052 243.526C75.1052 205.258 43.7947 173.947 5.52629 173.947ZM1049.21 556.632C1068.69 556.632 1084 541.324 1084 521.842C1084 502.36 1068.69 487.053 1049.21 487.053C1029.73 487.053 1014.42 502.36 1014.42 521.842C1014.42 541.324 1029.73 556.632 1049.21 556.632ZM562.158 313.105C600.426 313.105 631.737 281.795 631.737 243.526C631.737 205.258 600.426 173.947 562.158 173.947C523.889 173.947 492.579 205.258 492.579 243.526C492.579 281.795 523.889 313.105 562.158 313.105ZM562.158 69.5789C581.64 69.5789 596.947 54.2716 596.947 34.7895C596.947 15.3074 581.64 0 562.158 0C542.676 0 527.368 15.3074 527.368 34.7895C527.368 54.2716 542.676 69.5789 562.158 69.5789ZM-203.211 765.368C-222.693 765.368 -238 780.676 -238 800.158C-238 819.64 -222.693 834.947 -203.211 834.947C-183.728 834.947 -168.421 819.64 -168.421 800.158C-168.421 780.676 -183.728 765.368 -203.211 765.368ZM283.842 1252.42C264.36 1252.42 249.053 1267.73 249.053 1287.21C249.053 1306.69 264.36 1322 283.842 1322C303.324 1322 318.632 1306.69 318.632 1287.21C318.632 1267.73 303.324 1252.42 283.842 1252.42ZM283.842 69.5789C303.324 69.5789 318.632 54.2716 318.632 34.7895C318.632 15.3074 303.324 0 283.842 0C264.36 0 249.053 15.3074 249.053 34.7895C249.053 54.2716 264.36 69.5789 283.842 69.5789ZM283.842 313.105C322.111 313.105 353.421 281.795 353.421 243.526C353.421 205.258 322.111 173.947 283.842 173.947C245.574 173.947 214.263 205.258 214.263 243.526C214.263 281.795 245.574 313.105 283.842 313.105ZM283.842 695.789C226.092 695.789 179.474 742.407 179.474 800.158C179.474 857.908 226.092 904.526 283.842 904.526C341.593 904.526 388.21 857.908 388.21 800.158C388.21 742.407 341.593 695.789 283.842 695.789ZM840.474 730.579C802.205 730.579 770.895 761.89 770.895 800.158C770.895 838.426 802.205 869.737 840.474 869.737C878.742 869.737 910.052 838.426 910.052 800.158C910.052 761.89 878.742 730.579 840.474 730.579ZM840.474 1008.89C802.205 1008.89 770.895 1040.21 770.895 1078.47C770.895 1116.74 802.205 1148.05 840.474 1148.05C878.742 1148.05 910.052 1116.74 910.052 1078.47C910.052 1040.21 878.742 1008.89 840.474 1008.89ZM840.474 452.263C802.205 452.263 770.895 483.574 770.895 521.842C770.895 560.111 802.205 591.421 840.474 591.421C878.742 591.421 910.052 560.111 910.052 521.842C910.052 483.574 878.742 452.263 840.474 452.263ZM840.474 173.947C802.205 173.947 770.895 205.258 770.895 243.526C770.895 281.795 802.205 313.105 840.474 313.105C878.742 313.105 910.052 281.795 910.052 243.526C910.052 205.258 878.742 173.947 840.474 173.947ZM1049.21 765.368C1029.73 765.368 1014.42 780.676 1014.42 800.158C1014.42 819.64 1029.73 834.947 1049.21 834.947C1068.69 834.947 1084 819.64 1084 800.158C1084 780.676 1068.69 765.368 1049.21 765.368ZM562.158 1008.89C523.889 1008.89 492.579 1040.21 492.579 1078.47C492.579 1116.74 523.889 1148.05 562.158 1148.05C600.426 1148.05 631.737 1116.74 631.737 1078.47C631.737 1040.21 600.426 1008.89 562.158 1008.89ZM562.158 1252.42C542.676 1252.42 527.368 1267.73 527.368 1287.21C527.368 1306.69 542.676 1322 562.158 1322C581.64 1322 596.947 1306.69 596.947 1287.21C596.947 1267.73 581.64 1252.42 562.158 1252.42ZM283.842 417.474C226.092 417.474 179.474 464.092 179.474 521.842C179.474 579.593 226.092 626.21 283.842 626.21C341.593 626.21 388.21 579.593 388.21 521.842C388.21 464.092 341.593 417.474 283.842 417.474ZM283.842 1008.89C245.574 1008.89 214.263 1040.21 214.263 1078.47C214.263 1116.74 245.574 1148.05 283.842 1148.05C322.111 1148.05 353.421 1116.74 353.421 1078.47C353.421 1040.21 322.111 1008.89 283.842 1008.89ZM562.158 695.789C504.407 695.789 457.789 742.407 457.789 800.158C457.789 857.908 504.407 904.526 562.158 904.526C619.908 904.526 666.526 857.908 666.526 800.158C666.526 742.407 619.908 695.789 562.158 695.789ZM562.158 417.474C504.407 417.474 457.789 464.092 457.789 521.842C457.789 579.593 504.407 626.21 562.158 626.21C619.908 626.21 666.526 579.593 666.526 521.842C666.526 464.092 619.908 417.474 562.158 417.474Z" fill="url(#paint0_radial_1702_3633)"/>
<defs>
<radialGradient id="paint0_radial_1702_3633" cx="0" cy="0" r="1" gradientUnits="userSpaceOnUse" gradientTransform="translate(596.95 661.417) rotate(90) scale(1380.31)">
<stop stop-color="#F8F8F8" stop-opacity="0.35"/>
<stop offset="1" stop-color="#F8F8F8" stop-opacity="0"/>
</radialGradient>
</defs>
</svg>
