<svg width="195" height="194" viewBox="0 0 195 194" fill="none" xmlns="http://www.w3.org/2000/svg">
<path d="M194.002 30.3125C194.002 13.5714 180.431 0 163.689 0H30.3145C13.5733 0 0.00195312 13.5714 0.00195312 30.3125V163.688C0.00195312 180.429 13.5733 194 30.3145 194H163.689C180.431 194 194.002 180.429 194.002 163.688V30.3125Z" fill="#7289DA"/>
<path d="M88.2235 95.254C85.459 95.254 83.2765 97.679 83.2765 100.638C83.2765 103.596 85.5075 106.021 88.2235 106.021C90.988 106.021 93.1705 103.596 93.1705 100.638C93.219 97.679 90.988 95.254 88.2235 95.254ZM105.926 95.254C103.161 95.254 100.979 97.679 100.979 100.638C100.979 103.596 103.21 106.021 105.926 106.021C108.69 106.021 110.873 103.596 110.873 100.638C110.873 97.679 108.69 95.254 105.926 95.254Z" fill="white"/>
<path d="M129.497 54.5625H64.507C59.0265 54.5625 54.5645 59.0245 54.5645 64.5535V130.126C54.5645 135.655 59.0265 140.117 64.507 140.117H119.506L116.935 131.144L123.143 136.916L129.012 142.348L139.439 151.562V64.5535C139.439 59.0245 134.977 54.5625 129.497 54.5625ZM110.776 117.904C110.776 117.904 109.03 115.818 107.575 113.975C113.928 112.181 116.353 108.204 116.353 108.204C114.365 109.513 112.473 110.435 110.776 111.065C108.351 112.083 106.023 112.763 103.743 113.151C99.0875 114.024 94.8195 113.781 91.182 113.102C88.4175 112.569 86.041 111.792 84.0525 111.016C82.937 110.58 81.7245 110.047 80.512 109.368C80.3665 109.271 80.221 109.222 80.0755 109.125C79.9785 109.076 79.93 109.028 79.8815 108.979C79.0085 108.494 78.5235 108.155 78.5235 108.155C78.5235 108.155 80.8515 112.035 87.011 113.878C85.556 115.721 83.7615 117.904 83.7615 117.904C73.043 117.564 68.969 110.531 68.969 110.531C68.969 94.9145 75.953 82.256 75.953 82.256C82.937 77.018 89.5815 77.1635 89.5815 77.1635L90.0665 77.7455C81.3365 80.2675 77.311 84.099 77.311 84.099C77.311 84.099 78.378 83.517 80.1725 82.6925C85.362 80.413 89.4845 79.7825 91.182 79.637C91.473 79.5885 91.7155 79.54 92.0065 79.54C94.965 79.152 98.3115 79.055 101.803 79.443C106.411 79.9765 111.358 81.3345 116.402 84.099C116.402 84.099 112.57 80.4615 104.325 77.9395L105.004 77.1635C105.004 77.1635 111.649 77.018 118.633 82.256C118.633 82.256 125.617 94.9145 125.617 110.531C125.617 110.531 121.494 117.564 110.776 117.904Z" fill="white"/>
</svg>
