<svg class="reddit1" width="194"  height="194" viewBox="0 0 194 194" fill="none" xmlns="http://www.w3.org/2000/svg">
<path fill-rule="evenodd" clip-rule="evenodd" d="M30.3125 0H163.688C180.429 0 194 13.5714 194 30.3125V163.688C194 180.429 180.429 194 163.688 194H30.3125C13.5714 194 0 180.429 0 163.688V30.3125C0 13.5714 13.5714 0 30.3125 0ZM58.8063 70.9312C59.4124 71.5375 60.0187 72.75 60.0187 73.9625V116.4C60.625 118.219 60.0187 119.431 58.8063 120.644L48.5 132.769V134.587H76.9938V132.769L66.6875 120.644C66.0812 119.431 65.4749 118.219 65.4749 116.4V79.4187L90.9375 134.587H93.3625L115.188 79.4187V123.675C115.188 124.887 115.188 125.494 114.581 126.1L106.7 133.981V135.8H144.894V133.981L137.619 126.706C137.013 126.1 137.013 124.887 137.013 124.281V69.7188C136.406 68.5062 137.013 67.9 137.619 67.2937L145.5 60.0187V58.2H118.825L99.425 106.094L77.5999 58.2H49.7126V60.0187L58.8063 70.9312Z" fill="black"/>
</svg>
