<svg width="194" height="194" viewBox="0 0 194 194" fill="none" xmlns="http://www.w3.org/2000/svg">
<path d="M163.688 0H30.3125C13.5714 0 0 13.5714 0 30.3125V163.688C0 180.429 13.5714 194 30.3125 194H163.688C180.429 194 194 180.429 194 163.688V30.3125C194 13.5714 180.429 0 163.688 0Z" fill="#1DA1F2"/>
<path d="M145.5 66.6875C141.863 68.5063 138.225 69.1125 133.981 69.7188C138.225 67.2937 141.256 63.6562 142.469 58.8062C138.831 61.2312 134.588 62.4437 129.737 63.6562C126.1 60.0187 120.644 57.5938 115.188 57.5938C102.456 57.5938 92.7563 69.7188 95.7875 81.8438C79.4188 81.2375 64.8687 73.3563 54.5625 61.2313C49.1063 70.325 52.1375 81.8438 60.625 87.9062C57.5938 87.9062 54.5625 86.6938 51.5312 85.4813C51.5312 94.575 58.2 103.062 67.2938 105.487C64.2625 106.094 61.2313 106.7 58.2 106.094C60.625 113.975 67.9 120.037 76.9937 120.037C69.7187 125.494 58.8063 128.525 48.5 127.312C57.5938 132.769 67.9 136.406 78.8125 136.406C115.794 136.406 136.406 105.487 135.194 76.9937C139.437 74.5687 143.075 70.9312 145.5 66.6875Z" fill="white"/>
</svg>
