<svg width="958" height="1071" viewBox="0 0 958 1071" fill="none" xmlns="http://www.w3.org/2000/svg">
<path d="M85.1053 591.868C54.1316 591.868 28.7895 617.234 28.7895 648.237C28.7895 679.24 54.1316 704.605 85.1053 704.605C116.079 704.605 141.421 679.24 141.421 648.237C141.421 617.234 116.079 591.868 85.1053 591.868ZM85.1053 817.342C54.1316 817.342 28.7895 842.708 28.7895 873.711C28.7895 904.713 54.1316 930.079 85.1053 930.079C116.079 930.079 141.421 904.713 141.421 873.711C141.421 842.708 116.079 817.342 85.1053 817.342ZM85.1053 366.395C54.1316 366.395 28.7895 391.761 28.7895 422.763C28.7895 453.766 54.1316 479.132 85.1053 479.132C116.079 479.132 141.421 453.766 141.421 422.763C141.421 391.761 116.079 366.395 85.1053 366.395ZM-83.8421 394.579C-99.6105 394.579 -112 406.98 -112 422.763C-112 438.546 -99.6105 450.947 -83.8421 450.947C-68.0737 450.947 -55.6842 438.546 -55.6842 422.763C-55.6842 406.98 -68.0737 394.579 -83.8421 394.579ZM85.1053 140.921C54.1316 140.921 28.7895 166.287 28.7895 197.289C28.7895 228.292 54.1316 253.658 85.1053 253.658C116.079 253.658 141.421 228.292 141.421 197.289C141.421 166.287 116.079 140.921 85.1053 140.921ZM929.842 450.947C945.61 450.947 958 438.546 958 422.763C958 406.98 945.61 394.579 929.842 394.579C914.074 394.579 901.684 406.98 901.684 422.763C901.684 438.546 914.074 450.947 929.842 450.947ZM535.632 253.658C566.605 253.658 591.947 228.292 591.947 197.289C591.947 166.287 566.605 140.921 535.632 140.921C504.658 140.921 479.316 166.287 479.316 197.289C479.316 228.292 504.658 253.658 535.632 253.658ZM535.632 56.3684C551.4 56.3684 563.789 43.9674 563.789 28.1842C563.789 12.4011 551.4 0 535.632 0C519.863 0 507.474 12.4011 507.474 28.1842C507.474 43.9674 519.863 56.3684 535.632 56.3684ZM-83.8421 620.053C-99.6105 620.053 -112 632.454 -112 648.237C-112 664.02 -99.6105 676.421 -83.8421 676.421C-68.0737 676.421 -55.6842 664.02 -55.6842 648.237C-55.6842 632.454 -68.0737 620.053 -83.8421 620.053ZM310.368 1014.63C294.6 1014.63 282.211 1027.03 282.211 1042.82C282.211 1058.6 294.6 1071 310.368 1071C326.137 1071 338.526 1058.6 338.526 1042.82C338.526 1027.03 326.137 1014.63 310.368 1014.63ZM310.368 56.3684C326.137 56.3684 338.526 43.9674 338.526 28.1842C338.526 12.4011 326.137 0 310.368 0C294.6 0 282.211 12.4011 282.211 28.1842C282.211 43.9674 294.6 56.3684 310.368 56.3684ZM310.368 253.658C341.342 253.658 366.684 228.292 366.684 197.289C366.684 166.287 341.342 140.921 310.368 140.921C279.395 140.921 254.053 166.287 254.053 197.289C254.053 228.292 279.395 253.658 310.368 253.658ZM310.368 563.684C263.626 563.684 225.895 601.451 225.895 648.237C225.895 695.023 263.626 732.789 310.368 732.789C357.111 732.789 394.842 695.023 394.842 648.237C394.842 601.451 357.111 563.684 310.368 563.684ZM760.895 591.868C729.921 591.868 704.579 617.234 704.579 648.237C704.579 679.24 729.921 704.605 760.895 704.605C791.868 704.605 817.21 679.24 817.21 648.237C817.21 617.234 791.868 591.868 760.895 591.868ZM760.895 817.342C729.921 817.342 704.579 842.708 704.579 873.711C704.579 904.713 729.921 930.079 760.895 930.079C791.868 930.079 817.21 904.713 817.21 873.711C817.21 842.708 791.868 817.342 760.895 817.342ZM760.895 366.395C729.921 366.395 704.579 391.761 704.579 422.763C704.579 453.766 729.921 479.132 760.895 479.132C791.868 479.132 817.21 453.766 817.21 422.763C817.21 391.761 791.868 366.395 760.895 366.395ZM760.895 140.921C729.921 140.921 704.579 166.287 704.579 197.289C704.579 228.292 729.921 253.658 760.895 253.658C791.868 253.658 817.21 228.292 817.21 197.289C817.21 166.287 791.868 140.921 760.895 140.921ZM929.842 620.053C914.074 620.053 901.684 632.454 901.684 648.237C901.684 664.02 914.074 676.421 929.842 676.421C945.61 676.421 958 664.02 958 648.237C958 632.454 945.61 620.053 929.842 620.053ZM535.632 817.342C504.658 817.342 479.316 842.708 479.316 873.711C479.316 904.713 504.658 930.079 535.632 930.079C566.605 930.079 591.947 904.713 591.947 873.711C591.947 842.708 566.605 817.342 535.632 817.342ZM535.632 1014.63C519.863 1014.63 507.474 1027.03 507.474 1042.82C507.474 1058.6 519.863 1071 535.632 1071C551.4 1071 563.789 1058.6 563.789 1042.82C563.789 1027.03 551.4 1014.63 535.632 1014.63ZM310.368 338.211C263.626 338.211 225.895 375.977 225.895 422.763C225.895 469.549 263.626 507.316 310.368 507.316C357.111 507.316 394.842 469.549 394.842 422.763C394.842 375.977 357.111 338.211 310.368 338.211ZM310.368 817.342C279.395 817.342 254.053 842.708 254.053 873.711C254.053 904.713 279.395 930.079 310.368 930.079C341.342 930.079 366.684 904.713 366.684 873.711C366.684 842.708 341.342 817.342 310.368 817.342ZM535.632 563.684C488.889 563.684 451.158 601.451 451.158 648.237C451.158 695.023 488.889 732.789 535.632 732.789C582.374 732.789 620.105 695.023 620.105 648.237C620.105 601.451 582.374 563.684 535.632 563.684ZM535.632 338.211C488.889 338.211 451.158 375.977 451.158 422.763C451.158 469.549 488.889 507.316 535.632 507.316C582.374 507.316 620.105 469.549 620.105 422.763C620.105 375.977 582.374 338.211 535.632 338.211Z" fill="url(#paint0_radial_1577_3335)"/>
<defs>
<radialGradient id="paint0_radial_1577_3335" cx="0" cy="0" r="1" gradientUnits="userSpaceOnUse" gradientTransform="translate(423 518) rotate(90) scale(553 552.484)">
<stop stop-color="#302F2F"/>
<stop offset="1" stop-color="#1C1B1B"/>
</radialGradient>
</defs>
</svg>
