<svg width="70" height="70" viewBox="0 0 70 70" fill="none" xmlns="http://www.w3.org/2000/svg">
<path fill-rule="evenodd" clip-rule="evenodd" d="M10.9375 0H59.0625C65.1031 0 70 4.89689 70 10.9375V59.0625C70 65.1031 65.1031 70 59.0625 70H10.9375C4.89691 70 0 65.1031 0 59.0625V10.9375C0 4.89689 4.89691 0 10.9375 0ZM21.2188 25.5937C21.4375 25.8125 21.6562 26.25 21.6562 26.6875V42C21.875 42.6562 21.6562 43.0937 21.2188 43.5312L17.5 47.9062V48.5625H27.7813V47.9062L24.0625 43.5312C23.8437 43.0937 23.625 42.6562 23.625 42V28.6562L32.8125 48.5625H33.6875L41.5625 28.6562V44.625C41.5625 45.0625 41.5625 45.2812 41.3437 45.5L38.5 48.3437V49H52.2812V48.3437L49.6563 45.7187C49.4375 45.5 49.4375 45.0625 49.4375 44.8438V25.1562C49.2188 24.7187 49.4375 24.5 49.6563 24.2812L52.5 21.6562V21H42.875L35.875 38.2812L28 21H17.9375V21.6562L21.2188 25.5937Z" fill="black"/>
</svg>
