<svg width="70" height="70" viewBox="0 0 70 70" fill="none" xmlns="http://www.w3.org/2000/svg">
<path fill-rule="evenodd" clip-rule="evenodd" d="M10.9375 0H59.0625C65.1031 0 70 4.89689 70 10.9375V59.0625C70 65.1031 65.1031 70 59.0625 70H10.9375C4.89689 70 0 65.1031 0 59.0625V10.9375C0 4.89689 4.89689 0 10.9375 0ZM36.5134 26.2661C33.3787 27.57 27.1138 30.2685 17.7186 34.3619C16.1929 34.9686 15.3937 35.5621 15.321 36.1425C15.198 37.1233 16.4263 37.5095 18.0988 38.0354C18.3263 38.1069 18.562 38.1811 18.8037 38.2596C20.4492 38.7945 22.6628 39.4203 23.8135 39.4451C24.8573 39.4677 26.0223 39.0374 27.3085 38.1542C36.0868 32.2286 40.6181 29.2335 40.9026 29.1689C41.1033 29.1234 41.3815 29.0661 41.5699 29.2336C41.7583 29.4011 41.7398 29.7183 41.7199 29.8034C41.5982 30.3221 36.7769 34.8044 34.2819 37.124C33.5041 37.8471 32.9523 38.3601 32.8395 38.4772C32.5869 38.7397 32.3294 38.9879 32.0819 39.2265C30.5532 40.7002 29.4068 41.8053 32.1454 43.61C33.4614 44.4773 34.5146 45.1945 35.5652 45.9099C36.7126 46.6913 37.857 47.4706 39.3377 48.4413C39.7149 48.6885 40.0752 48.9454 40.4261 49.1956C41.7614 50.1475 42.961 51.0027 44.4431 50.8664C45.3043 50.7871 46.1938 49.9773 46.6456 47.5622C47.7133 41.8545 49.8119 29.4877 50.2969 24.3916C50.3394 23.9452 50.286 23.3738 50.243 23.1229C50.2001 22.8721 50.1104 22.5147 49.7844 22.2501C49.3982 21.9368 48.8021 21.8707 48.5355 21.8752C47.3233 21.8968 45.4636 22.5435 36.5134 26.2661Z" fill="black"/>
</svg>
