<svg width="194" height="194" viewBox="0 0 194 194" fill="none" xmlns="http://www.w3.org/2000/svg">
<path d="M163.688 0H30.3125C13.5714 0 0 13.5714 0 30.3125V163.688C0 180.429 13.5714 194 30.3125 194H163.688C180.429 194 194 180.429 194 163.688V30.3125C194 13.5714 180.429 0 163.688 0Z" fill="#0088CC"/>
<path d="M49.1057 95.2315C75.1439 83.8871 92.5068 76.4082 101.194 72.7947C125.999 62.4776 131.153 60.6854 134.513 60.6256C135.252 60.6132 136.904 60.7963 137.974 61.6647C138.877 62.3979 139.126 63.3883 139.245 64.0835C139.364 64.7787 139.512 66.3623 139.394 67.5997C138.05 81.7231 132.234 115.997 129.275 131.815C128.023 138.509 125.558 140.753 123.171 140.972C117.984 141.45 114.045 137.545 109.022 134.251C101.16 129.098 96.7193 125.891 89.0886 120.862C80.2701 115.051 85.9868 111.857 91.0124 106.637C92.3277 105.271 115.181 84.4837 115.624 82.598C115.679 82.3622 115.73 81.4831 115.208 81.0189C114.686 80.5547 113.915 80.7134 113.359 80.8397C112.57 81.0186 100.012 89.3192 75.6836 105.741C72.1189 108.189 68.8902 109.382 65.9973 109.319C62.8082 109.25 56.6736 107.516 52.1131 106.034C46.5195 104.216 42.0739 103.254 42.461 100.166C42.6626 98.5579 44.8775 96.9129 49.1057 95.2315Z" fill="white"/>
</svg>
