<svg width="70" height="70" viewBox="0 0 70 70" fill="none" xmlns="http://www.w3.org/2000/svg">
<path fill-rule="evenodd" clip-rule="evenodd" d="M38.815 41.125C39.34 41.79 39.97 42.5425 39.97 42.5425C43.8375 42.42 45.325 39.8825 45.325 39.8825C45.325 34.2475 42.805 29.68 42.805 29.68C40.285 27.79 37.8875 27.8425 37.8875 27.8425L37.6425 28.1225C40.6175 29.0325 42 30.345 42 30.345C40.18 29.3475 38.395 28.8575 36.7325 28.665C35.4725 28.525 34.265 28.56 33.1975 28.7C33.1058 28.7 33.0275 28.7133 32.9392 28.7284L32.9 28.735C32.2875 28.7875 30.8 29.015 28.9275 29.8375C28.28 30.135 27.895 30.345 27.895 30.345C27.895 30.345 29.3475 28.9625 32.4975 28.0525L32.3225 27.8425C32.3225 27.8425 29.925 27.79 27.405 29.68C27.405 29.68 24.885 34.2475 24.885 39.8825C24.885 39.8825 26.355 42.42 30.2225 42.5425C30.2225 42.5425 30.87 41.755 31.395 41.09C29.1725 40.425 28.3325 39.025 28.3325 39.025C28.3325 39.025 28.5075 39.1475 28.8225 39.3225C28.84 39.34 28.8575 39.3575 28.8925 39.375C28.9188 39.3925 28.945 39.4056 28.9713 39.4188C28.9975 39.4319 29.0238 39.445 29.05 39.4625C29.4875 39.7075 29.925 39.9 30.3275 40.0575C31.045 40.3375 31.9025 40.6175 32.9 40.81C34.2125 41.055 35.7525 41.1425 37.4325 40.8275C38.255 40.6875 39.095 40.4425 39.97 40.075C40.5825 39.8475 41.265 39.515 41.9825 39.0425C41.9825 39.0425 41.1075 40.4775 38.815 41.125ZM30.0475 36.3125C30.0475 35.245 30.835 34.37 31.8325 34.37C32.83 34.37 33.635 35.245 33.6175 36.3125C33.6175 37.38 32.83 38.255 31.8325 38.255C30.8525 38.255 30.0475 37.38 30.0475 36.3125ZM36.435 36.3125C36.435 35.245 37.2225 34.37 38.22 34.37C39.2175 34.37 40.005 35.245 40.005 36.3125C40.005 37.38 39.2175 38.255 38.22 38.255C37.24 38.255 36.435 37.38 36.435 36.3125Z" fill="white"/>
<path fill-rule="evenodd" clip-rule="evenodd" d="M59.0625 0C65.1031 0 70 4.89689 70 10.9375V59.0625C70 65.1031 65.1031 70 59.0625 70H10.9375C4.89689 70 0 65.1031 0 59.0625V10.9375C0 4.89689 4.89689 0 10.9375 0H59.0625ZM23.275 19.6875H46.725C48.7025 19.6875 50.3125 21.2975 50.3125 23.2925V54.6875L46.55 51.3625L44.4325 49.4025L42.1925 47.32L43.12 50.5575H23.275C21.2975 50.5575 19.6875 48.9475 19.6875 46.9525V23.2925C19.6875 21.2975 21.2975 19.6875 23.275 19.6875Z" fill="white"/>
</svg>
