<svg width="70" height="70" viewBox="0 0 70 70" fill="none" xmlns="http://www.w3.org/2000/svg">
<path fill-rule="evenodd" clip-rule="evenodd" d="M0 10.9375C0 4.89689 4.89689 0 10.9375 0H59.0625C65.1031 0 70 4.89689 70 10.9375V59.0625C70 65.1031 65.1031 70 59.0625 70H10.9375C4.89689 70 0 65.1031 0 59.0625V10.9375ZM48.3438 25.1562C49.875 24.9375 51.1875 24.7188 52.5 24.0625C51.625 25.5938 50.3125 26.9062 48.7812 27.7812C49.2188 38.0625 41.7812 49.2188 28.4375 49.2188C24.5 49.2188 20.7812 47.9062 17.5 45.9375C21.2188 46.375 25.1562 45.2812 27.7812 43.3125C24.5 43.3125 21.875 41.125 21 38.2812C22.0938 38.5 23.1875 38.2812 24.2812 38.0625C21 37.1875 18.5938 34.125 18.5938 30.8438C19.6875 31.2812 20.7812 31.7188 21.875 31.7188C18.8125 29.5312 17.7188 25.375 19.6875 22.0938C23.4062 26.4688 28.6562 29.3125 34.5625 29.5312C33.4688 25.1562 36.9688 20.7812 41.5625 20.7812C43.5312 20.7812 45.5 21.6562 46.8125 22.9688C48.5625 22.5312 50.0938 22.0937 51.4062 21.2188C50.9688 22.9688 49.875 24.2812 48.3438 25.1562Z" fill="white"/>
</svg>
